PathFileType	4	(X/Y/Z)	D:\TRACE\spotREDO_2-26-24\spot_justBody_Motion_2_5-v60.trc
DataRate	CameraRate	NumFrames	NumMarkers	Units	OrigDataRate	OrigDataStartFrame	OrigNumFrames
100.00	100.00	      42	9	mm	100.00	5251	      7000
Frame#	Time	front left toe			Front right toe			aft left toe			aft right toe			Arm			FL body			FR body			AL Body			AR Body			
		X1	Y1	Z1	X2	Y2	Z2	X3	Y3	Z3	X4	Y4	Z4	X5	Y5	Z5	X6	Y6	Z6	X7	Y7	Z7	X8	Y8	Z8	X9	Y9	Z9	

5251	52.500	-251.59227	18.91966	-82.45484	296.28198	14.82014	-166.73398	-175.01469	46.65233	447.35895	332.73389	43.12220	328.55383	18.71880	822.41858	-258.61731	-64.46891	563.61530	-231.12686	90.79449	566.10425	-252.41185	50.94089	551.63025	646.13312	199.19276	550.23248	627.42926	
5252	52.510	-251.99577	18.83414	-82.90646	295.99417	14.72254	-166.80453	-175.31413	47.43497	447.06879	332.20599	43.78117	328.26697	18.44568	821.89044	-258.81680	-63.95626	562.53638	-229.94055	90.47137	565.71381	-252.08685	50.52581	552.43115	646.44025	198.72447	551.34747	627.84326	
5253	52.520	-252.20168	18.49883	-83.03656	296.28201	14.92651	-166.86942	-175.63504	48.31932	446.64743	331.85272	44.12391	328.05634	17.97052	821.31897	-259.06674	-64.08310	561.86127	-229.46538	90.42868	565.25415	-251.74049	50.36681	553.44012	646.75696	198.44421	552.27777	628.21558	
5254	52.530	-252.44305	18.10604	-83.25207	295.79358	14.85738	-167.09323	-175.88838	48.87083	446.43094	331.55450	44.69037	327.77908	17.74609	820.77802	-259.07263	-64.15852	561.40851	-229.38289	90.20023	564.78821	-251.34119	50.17755	554.40417	647.29730	198.50528	553.41663	628.52716	
5255	52.540	-252.52248	17.89082	-83.45428	295.67923	14.51815	-167.27225	-175.98523	49.37598	446.28369	331.54025	45.21170	327.62103	17.57977	820.23669	-259.13928	-64.25404	560.94037	-229.30316	90.20686	564.35272	-250.99916	50.11747	555.41217	647.64807	198.34456	554.61688	628.88379	
5256	52.550	-252.68263	17.82897	-83.61338	295.52890	14.20384	-167.39294	-176.32738	50.27837	445.94669	331.42819	45.75446	327.21387	17.37882	819.74084	-259.34344	-64.49177	560.23853	-229.07043	90.14540	563.92102	-250.78490	49.84295	556.49683	647.91559	197.80566	555.70282	629.32416	
5257	52.560	-252.79689	17.68886	-83.73850	294.79630	12.98523	-167.85236	-176.60559	51.04506	445.44757	331.27045	46.25332	326.85248	16.94407	819.30652	-259.43915	-64.56857	559.92078	-228.91585	90.21677	563.47778	-250.47121	49.41650	557.55206	648.19769	197.65829	556.82520	629.55505	
5258	52.570	-252.99487	17.61573	-83.94601	294.62054	12.67494	-168.02840	-176.50595	51.52374	445.22037	331.05667	46.87230	326.55801	16.92699	818.85870	-259.53101	-64.46854	559.40033	-228.35484	89.93293	563.06940	-250.28101	49.47301	558.64478	648.41187	197.40761	558.02539	629.92535	
5259	52.580	-253.00047	17.26858	-84.10673	294.69470	12.29828	-168.23158	-176.60526	52.16125	445.13214	331.07266	47.22285	326.42694	16.72448	818.27069	-259.72592	-64.66577	559.21588	-228.49707	89.80676	562.80817	-250.09454	49.14136	559.62128	648.74591	197.30109	559.36542	630.17505	
5260	52.590	-252.98299	17.16864	-84.31188	294.83429	12.13094	-168.34364	-176.51349	52.65135	444.99359	331.05518	47.83707	326.27829	16.55427	817.79150	-259.83640	-64.55065	558.39471	-227.71727	89.80407	562.53680	-249.85207	49.36950	560.81378	648.99115	197.00259	560.45654	630.37524	
5261	52.600	-253.02092	17.13932	-84.59901	294.78085	11.93401	-168.45972	-176.56371	53.34959	444.89581	330.91223	48.26646	325.99988	16.07089	817.41937	-260.12283	-64.53230	557.83099	-227.41539	89.75600	562.08862	-249.37386	48.15889	562.03949	649.07971	196.96330	561.66907	630.73920	
5262	52.610	-253.11127	17.04906	-84.93322	294.75278	11.76923	-168.69398	-176.54572	54.02401	444.67365	330.74335	48.66619	325.58081	15.84451	817.10211	-260.31473	-64.46042	557.45850	-227.26370	89.85664	561.75995	-249.11763	48.23753	563.18341	649.37494	196.74066	562.92053	630.89917	
5263	52.620	-253.02228	16.82096	-85.15620	295.37076	12.40093	-168.69431	-176.73059	54.71772	444.25040	331.16895	48.64887	325.58051	15.52562	816.78766	-260.63901	-64.59119	557.21356	-227.07626	89.87350	561.37817	-248.89072	47.90472	564.29089	649.62158	196.75299	564.09753	631.00616	
5264	52.630	-252.91792	16.65495	-85.30616	294.90314	11.30147	-169.05949	-176.71681	55.24081	443.76688	331.36298	49.23745	325.27444	15.26694	816.46936	-260.91550	-64.51302	556.95258	-226.90160	89.83348	561.06860	-248.70738	48.00569	565.45538	649.91418	196.60918	565.39349	631.41107	
5265	52.640	-252.74312	16.46096	-85.56054	295.52469	11.57236	-169.39471	-176.58255	55.82251	443.46909	331.62827	49.72415	325.02127	14.98547	815.88055	-261.01480	-64.64729	556.39856	-226.81070	90.00986	560.71173	-248.41617	47.97076	566.47455	650.08453	196.80635	566.52338	631.76532	
5266	52.650	-252.66776	16.39708	-85.75866	295.67078	11.37597	-169.56851	-176.22765	56.24794	443.11911	331.86227	50.49142	324.78152	15.14063	815.27820	-261.20581	-64.66421	555.91125	-226.59230	89.91964	560.39508	-248.26569	48.50952	567.56958	650.38660	196.73633	567.69891	631.93872	
5267	52.660	-252.56975	16.34249	-85.86382	295.96826	11.16910	-169.74821	-175.90378	56.65564	443.08316	331.93268	50.80205	324.68579	15.08907	814.96790	-261.36832	-64.63004	555.47229	-226.27299	89.97018	560.09259	-248.13963	48.32278	568.60406	650.61243	196.53198	568.82477	632.19519	
5268	52.670	-252.29730	16.11852	-85.97338	296.30038	11.00664	-169.90564	-175.64217	57.15909	442.83688	332.07550	51.22786	324.30042	14.67167	814.57715	-261.51895	-64.45377	555.02875	-225.93184	90.71066	559.55225	-247.74799	48.60579	569.64203	650.82214	196.76025	569.83850	632.29169	
5269	52.680	-251.80109	15.81287	-86.08881	296.47601	10.92402	-170.03676	-175.28629	57.70644	442.72818	332.34161	51.59955	324.03223	14.53034	814.17529	-261.65631	-64.52052	554.79053	-226.01436	90.75755	559.09729	-247.53886	48.68529	570.76611	651.02362	196.75229	571.04822	632.43103	
5270	52.690	-251.48476	15.88660	-86.15340	296.77567	11.00395	-170.13652	-174.88408	58.36521	442.49881	332.80682	51.93312	323.77469	14.65523	813.72687	-261.69360	-64.11826	554.15973	-225.43570	90.86921	558.83612	-247.24512	48.80132	571.57629	651.28448	197.22910	572.03094	632.74023	
5271	52.700	-251.29457	15.83044	-86.22530	297.22543	10.50568	-170.40016	-174.57600	58.62793	442.37814	333.04019	52.46127	323.30798	14.62410	813.32629	-261.88791	-64.20760	553.86859	-225.28490	91.14027	558.54901	-246.90785	49.20522	572.72729	651.47748	197.24153	573.13269	632.86688	
5272	52.710	-250.93394	15.08996	-86.49778	297.40930	10.35846	-170.72752	-174.36034	58.89600	442.22806	333.16449	52.85415	323.10754	14.79386	812.85480	-262.05353	-63.85903	553.41095	-224.90836	91.34500	558.11456	-246.61441	49.54039	573.57703	651.72424	197.92648	574.14703	633.09283	
5273	52.720	-250.26041	17.78098	-85.65278	297.19775	8.98893	-170.59015	-174.19083	58.90570	442.43845	333.67017	53.22750	323.24420	15.07840	812.30231	-262.02585	-63.33332	552.78595	-224.57158	91.70922	557.84381	-246.33202	50.07755	574.54053	652.13983	197.99867	574.96838	633.37732	
5274	52.730	-249.09711	27.00191	-81.62942	298.02435	8.70879	-170.76109	-173.79399	59.50033	441.76059	334.06223	53.31044	323.17120	14.67795	811.92993	-261.99167	-62.62721	552.09955	-224.29733	92.30147	557.47406	-246.22928	50.86464	574.74219	652.15735	198.05252	576.31793	633.70343	
5275	52.740	-245.31218	38.11591	-76.88183	298.48245	8.54948	-170.96555	-173.00270	59.97703	441.39557	334.69543	53.96416	322.73230	13.84532	811.43390	-262.21951	-62.03792	551.05981	-224.24379	92.40501	557.23132	-246.07124	51.06408	575.64001	652.26056	198.46002	577.89551	634.29059	
5276	52.750	-244.94235	49.97092	-74.11107	298.81607	8.55260	-170.89447	-172.22192	60.78555	441.08475	335.27097	54.53500	322.48361	13.15055	810.58942	-262.55179	-61.75004	550.16614	-224.21492	92.66206	556.84991	-245.98067	51.38738	575.01135	650.77826	198.69829	579.11487	634.06409	
5277	52.760	-245.36804	61.92050	-75.83498	299.29987	8.12732	-171.11223	-171.65977	61.27325	441.04852	335.67267	54.65393	322.39606	12.98104	809.55298	-262.96875	-61.64933	549.41998	-223.91553	93.54042	556.22064	-245.62610	51.87712	576.37964	650.87311	199.07074	580.64923	634.12616	
5278	52.770	-246.05168	74.18150	-79.89238	299.66028	8.08910	-171.25912	-170.97757	61.36858	440.98132	336.15509	54.91161	322.03333	13.14880	808.95856	-263.44415	-61.88712	549.00562	-223.92877	93.54430	555.70148	-245.51640	52.61007	577.18048	650.97968	199.78551	581.63885	634.03870	
5279	52.780	-244.06001	85.44349	-83.29581	299.91116	8.01303	-171.42570	-170.63901	61.64670	440.72568	336.94031	54.89820	322.07404	13.14442	808.67407	-263.56604	-61.56943	548.42987	-223.21758	92.73462	555.30646	-245.34863	53.42542	578.09351	651.15027	200.55029	582.32959	634.12396	
5280	52.790	-240.63438	95.67551	-84.11493	300.27606	8.00226	-171.57156	-170.18687	61.91632	440.63574	337.36243	55.03928	321.65720	13.02837	808.45514	-263.68018	-61.50040	548.23285	-222.98882	92.80041	555.04669	-245.31404	53.83553	578.62561	651.21136	200.89284	582.82678	634.10553	
5281	52.800	-237.65961	105.59624	-82.65544	300.81668	8.00764	-171.62038	-169.69452	62.10540	440.55902	337.77133	55.26495	321.47876	12.82953	808.50073	-263.56329	-61.34419	548.09131	-222.99832	92.94030	554.99664	-245.28542	53.97438	579.17303	651.24097	201.03218	583.53766	634.04089	
5282	52.810	-234.05057	114.02890	-78.89628	301.58334	7.97275	-171.63426	-169.30151	62.24241	440.59351	338.63492	55.61674	321.53015	12.48046	808.27917	-263.59863	-60.95765	547.75024	-223.11459	93.17464	554.85413	-245.30724	54.09577	579.56482	651.26318	201.30896	584.21735	633.97528	
5283	52.820	-232.54315	122.77296	-76.09115	302.15631	7.97389	-171.58841	-168.78000	62.49171	440.66129	338.75452	55.70967	321.48245	12.37413	807.79810	-263.78799	-60.61113	547.31702	-223.11681	93.39747	554.55927	-245.41289	54.01141	580.06677	651.21124	201.04846	584.58563	634.03125	
5284	52.830	-231.00269	130.77431	-74.76560	302.37329	8.03232	-171.67038	-168.23778	62.74162	440.51706	339.30078	55.82182	321.39798	12.96020	807.22778	-264.10461	-60.45911	546.87750	-223.17641	94.19154	554.05719	-245.49854	54.10891	580.54968	651.08789	201.14052	585.08923	634.03125	
5285	52.840	-229.66313	137.29318	-74.98601	302.67102	7.87662	-171.78596	-167.67860	62.83161	440.36249	339.72284	55.86792	321.13611	13.44991	806.70044	-264.63885	-60.10952	546.39502	-223.16837	94.49571	553.55865	-245.26929	54.32998	581.07739	651.01123	201.35960	585.75537	633.88623	
5286	52.850	-227.75395	142.08124	-75.88973	303.46423	7.56577	-171.99345	-166.97713	62.98892	440.35074	340.61041	56.15319	321.21637	13.73756	806.34479	-265.10443	-60.24536	546.06445	-223.28754	94.92606	553.11774	-245.32002	54.52186	581.68427	651.02014	201.62080	586.46466	633.91559	
5287	52.860	-224.75366	143.47656	-75.82331	304.32883	7.59547	-171.93065	-166.44102	62.97240	440.26996	341.10440	56.15369	320.92157	13.80288	805.82074	-265.29214	-60.30782	545.53772	-223.80869	95.38728	552.83167	-245.43761	54.46000	582.22919	650.87445	201.60338	586.84583	633.86719	
5288	52.870	-221.46873	142.69774	-74.46284	305.23029	7.55994	-171.89812	-165.93080	62.88682	440.16983	341.71527	56.28981	320.78729	13.55654	805.55157	-265.54584	-59.56629	545.00043	-223.58571	95.63277	552.55878	-245.54213	54.25787	582.57355	650.67072	201.33347	587.51855	633.72150	
5289	52.880	-218.48007	141.27435	-72.96534	306.33621	8.24487	-171.82042	-165.26434	63.05122	440.02704	342.41522	56.50266	320.82611	13.24537	805.05981	-265.95941	-59.08431	544.50623	-223.73560	95.85728	552.41156	-245.64407	54.02919	584.50061	651.65106	201.47121	588.27563	633.75842	
5290	52.890	-215.73463	139.47510	-70.47713	306.83450	8.14890	-171.93054	-164.49234	63.12038	439.81595	342.74609	56.53131	320.81894	13.41718	804.50220	-266.33939	-58.65172	543.92554	-224.04933	96.14868	552.04614	-246.26303	54.01381	584.94708	651.55206	201.57587	588.92444	633.65997	
5291	52.900	-213.13602	139.13968	-68.63849	307.71686	8.10757	-171.75388	-163.80240	62.90623	439.76981	343.44922	56.64799	320.80447	13.62571	803.85077	-266.99619	-58.41197	543.26239	-224.11684	96.38793	551.41309	-246.12106	54.17265	585.47876	651.28888	201.33389	589.45135	633.33691	
5292	52.910	-210.86549	139.22171	-67.50723	308.47693	8.09052	-171.78481	-163.24054	62.99948	439.91211	344.13351	56.76456	320.67865	14.02656	803.11591	-267.52261	-58.49341	542.76373	-224.77132	96.64925	550.86597	-246.33008	54.25974	585.94971	651.14868	201.33176	589.88062	633.05920	
